<?xml version="1.0" standalone="no"?>
<!DOCTYPE svg PUBLIC "-//W3C//DTD SVG 20010904//EN"
 "http://www.w3.org/TR/2001/REC-SVG-20010904/DTD/svg10.dtd">
<svg version="1.0" xmlns="http://www.w3.org/2000/svg"
 width="1024.000000pt" height="768.000000pt" viewBox="0 0 1024.000000 768.000000"
 preserveAspectRatio="xMidYMid meet">

<g transform="translate(0.000000,768.000000) scale(0.100000,-0.100000)"
fill="#000000" stroke="none">
<path d="M8270 6481 l0 -771 312 0 c172 0 342 5 378 10 250 40 444 182 555
405 65 132 79 195 79 355 0 153 -12 212 -74 345 -72 156 -189 278 -334 349
-136 67 -152 69 -553 73 l-363 5 0 -771z m820 409 c25 -13 41 -65 30 -94 -20
-54 -31 -56 -337 -56 l-283 0 0 80 0 80 286 0 c167 0 293 -4 304 -10z m-154
-353 c32 -38 31 -72 -5 -108 l-29 -29 -201 0 -201 0 0 86 0 85 206 -3 206 -3
24 -28z"/>
<path d="M5308 7217 c-15 -7 -37 -25 -50 -42 l-23 -29 -3 -396 c-2 -263 0
-407 8 -432 15 -51 61 -88 111 -88 l39 0 0 384 c0 212 4 387 8 390 4 2 77 -50
162 -116 295 -228 339 -260 352 -252 7 4 33 24 58 44 25 20 113 88 195 150 83
63 168 129 189 147 21 18 43 30 47 27 5 -3 9 -178 9 -390 l0 -384 41 0 c56 0
104 47 114 111 3 24 5 215 3 424 -3 362 -4 381 -23 407 -34 45 -132 77 -150
49 -3 -6 -33 -31 -67 -57 -34 -25 -66 -51 -72 -56 -16 -13 -285 -226 -323
-255 l-32 -25 -38 29 c-21 15 -40 30 -43 33 -3 3 -100 81 -216 173 -223 176
-234 182 -296 154z"/>
<path d="M1908 6903 l-3 -98 -95 -2 c-52 -1 -139 -2 -192 -2 l-98 -1 0 -95 0
-95 -100 0 -100 0 0 -100 0 -99 -82 -3 -83 -3 -3 -72 c-2 -63 -5 -73 -21 -73
-24 0 -88 27 -96 40 -3 6 -15 -1 -28 -15 -12 -14 -40 -31 -62 -39 -39 -14 -36
-15 86 -15 l125 -1 13 -51 c50 -195 225 -350 446 -395 98 -20 319 -15 440 11
232 48 441 178 570 353 l60 82 170 1 170 0 -52 24 c-30 14 -53 30 -53 39 0 13
-6 12 -34 -5 -36 -21 -140 -42 -168 -33 -15 4 -14 12 13 67 l29 62 68 6 c37 4
86 16 108 27 49 25 116 97 112 120 -6 33 -76 56 -164 55 l-80 -1 -12 43 c-8
29 -30 63 -69 105 l-57 62 -27 -32 c-53 -63 -60 -216 -13 -288 14 -22 13 -23
-33 -44 -38 -17 -69 -21 -153 -22 l-105 -1 -3 98 -3 97 -94 0 -95 0 0 195 0
195 -115 0 -114 0 -3 -97z m67 57 c3 -6 -1 -7 -10 -4 -14 6 -16 -3 -13 -67 l3
-73 33 -2 c27 -2 32 1 33 19 2 22 2 22 6 0 3 -15 12 -23 24 -23 17 0 19 8 19
75 0 68 -2 75 -20 75 -11 0 -20 -6 -20 -12 0 -9 -4 -8 -10 2 -9 13 -11 13 -21
0 -9 -13 -10 -13 -6 0 2 10 19 16 48 18 l44 3 -3 -77 c-3 -56 0 -79 10 -85 8
-5 -21 -9 -69 -9 l-83 0 0 78 c0 43 3 82 7 85 9 10 21 9 28 -3z m52 -82 c-2
-13 -4 -5 -4 17 -1 22 1 32 4 23 2 -10 2 -28 0 -40z m-30 -40 c-3 -8 -6 -5 -6
6 -1 11 2 17 5 13 3 -3 4 -12 1 -19z m-88 -85 c0 -11 -3 -13 -6 -5 -7 19 -43
15 -44 -5 -1 -16 -2 -17 -6 -1 -3 12 -17 18 -46 21 -27 2 -16 4 31 5 63 2 72
0 71 -15z m-74 -130 c14 2 25 0 25 -4 0 -5 -25 -9 -55 -9 -30 0 -55 4 -55 9 0
4 11 6 25 3 25 -4 25 -3 27 64 l2 69 3 -69 c4 -66 5 -68 28 -63z m865 95 c42
-44 61 -82 69 -137 6 -42 9 -46 31 -42 14 2 34 5 45 6 11 1 20 3 20 4 0 11 53
8 77 -5 16 -9 27 -11 24 -5 -9 13 4 14 23 2 11 -7 10 -13 -5 -35 -11 -14 -22
-26 -26 -26 -4 0 -14 -7 -23 -17 -9 -9 -30 -16 -46 -16 -16 0 -29 -4 -29 -9 0
-4 -24 -8 -54 -8 -68 0 -86 -7 -86 -32 0 -21 -29 -81 -43 -86 -4 -2 -5 -7 -2
-12 9 -14 -44 -17 -71 -4 -23 12 -30 11 -67 -10 -23 -13 -63 -26 -89 -30 -65
-8 -201 11 -253 35 l-42 20 -40 -21 c-84 -43 -197 -44 -284 -2 -42 20 -48 21
-75 7 -96 -48 -267 -54 -352 -13 -37 18 -47 19 -70 8 -15 -7 -52 -15 -83 -19
l-55 -7 -2 52 -1 51 62 6 c34 4 331 7 660 7 572 0 601 0 665 20 37 11 78 28
91 39 l24 18 -29 38 c-24 32 -29 49 -32 110 -3 48 1 83 12 108 8 20 17 37 20
37 3 0 19 -15 36 -32z m-843 -60 c-2 -13 -4 -3 -4 22 0 25 2 35 4 23 2 -13 2
-33 0 -45z m53 7 c0 -51 -2 -55 -22 -54 -17 1 -19 2 -5 6 13 3 17 15 17 54 0
27 2 49 5 49 3 0 5 -25 5 -55z m-200 -101 c0 -2 -7 -4 -15 -4 -8 0 -15 4 -15
10 0 5 7 7 15 4 8 -4 15 -8 15 -10z m317 -91 c-2 -21 -4 -4 -4 37 0 41 2 58 4
38 2 -21 2 -55 0 -75z m66 -55 c7 -4 -7 -8 -30 -8 -24 0 -43 4 -43 9 0 5 11 8
25 5 25 -4 25 -4 27 78 l2 83 3 -80 c3 -47 9 -82 16 -87z m-531 100 c-5 -89
-9 -97 -11 -20 0 39 2 72 7 72 4 0 6 -24 4 -52z m393 -20 c0 -53 3 -72 13 -70
6 1 12 -2 12 -8 0 -5 -9 -10 -20 -10 -18 0 -20 7 -20 80 0 44 3 80 8 80 4 0 7
-33 7 -72z m42 50 c-3 -8 -6 -5 -6 6 -1 11 2 17 5 13 3 -3 4 -12 1 -19z m-410
-100 c-3 -7 -5 -2 -5 12 0 14 2 19 5 13 2 -7 2 -19 0 -25z m-70 0 c-3 -8 -6
-5 -6 6 -1 11 2 17 5 13 3 -3 4 -12 1 -19z m93 -30 c0 -4 -9 -8 -21 -8 -11 0
-18 4 -15 8 7 11 36 11 36 0z m30 2 c0 -5 -5 -10 -11 -10 -5 0 -7 5 -4 10 3 6
8 10 11 10 2 0 4 -4 4 -10z m25 0 c3 -5 1 -10 -4 -10 -6 0 -11 5 -11 10 0 6 2
10 4 10 3 0 8 -4 11 -10z m79 -299 c9 -10 16 -31 14 -48 -2 -26 -6 -29 -36
-31 -42 -3 -62 12 -62 49 0 46 52 65 84 30z m-90 -165 c30 -48 90 -104 152
-143 16 -10 5 -12 -62 -12 -87 -1 -206 24 -271 57 -52 27 -163 110 -163 122 0
6 43 10 108 11 59 0 125 4 147 8 22 5 43 9 47 10 4 0 23 -23 42 -53z"/>
<path d="M2753 6463 c9 -2 23 -2 30 0 6 3 -1 5 -18 5 -16 0 -22 -2 -12 -5z"/>
<path d="M2680 6360 c-6 -11 -8 -20 -6 -20 3 0 10 9 16 20 6 11 8 20 6 20 -3
0 -10 -9 -16 -20z"/>
<path d="M1687 6113 c-4 -3 -7 -17 -7 -30 0 -18 6 -23 24 -23 34 0 40 16 16
40 -22 22 -24 23 -33 13z"/>
<path d="M1220 5671 c-5 -11 -10 -49 -10 -85 l0 -66 -40 21 c-61 32 -156 24
-207 -18 -56 -44 -78 -88 -78 -153 0 -170 184 -257 322 -153 57 43 63 70 63
276 0 159 -2 186 -16 191 -22 8 -22 8 -34 -13z m-69 -194 c68 -46 81 -132 29
-191 -44 -50 -90 -63 -147 -41 -53 20 -83 63 -83 118 0 109 113 173 201 114z"/>
<path d="M2153 5683 c-10 -3 -13 -64 -13 -253 0 -220 2 -249 16 -254 27 -11
44 13 44 62 l0 46 48 -45 c65 -62 77 -70 96 -63 28 11 18 38 -35 89 -28 28
-60 63 -71 78 l-21 29 73 73 c48 48 71 79 68 91 -7 38 -39 27 -99 -32 l-59
-58 0 106 c0 84 -3 110 -16 122 -8 9 -16 16 -17 15 -1 0 -8 -3 -14 -6z"/>
<path d="M2547 5557 c-82 -26 -146 -108 -147 -188 0 -19 12 -59 26 -87 29 -59
87 -100 154 -109 51 -7 130 21 130 46 0 32 -18 39 -63 27 -42 -12 -88 -11 -86
2 0 4 48 47 105 95 60 51 104 96 104 106 0 27 -37 69 -78 90 -51 25 -100 31
-145 18z m122 -78 c28 -17 32 -22 20 -33 -66 -62 -180 -156 -188 -156 -18 0
-31 37 -31 86 0 42 4 51 40 86 34 32 48 38 83 38 25 0 56 -9 76 -21z"/>
<path d="M1406 5530 c-63 -40 -90 -99 -84 -181 3 -46 11 -66 34 -96 53 -66 78
-78 153 -78 57 0 74 4 110 28 102 68 120 201 38 294 -63 72 -168 86 -251 33z
m171 -50 c66 -40 85 -103 51 -170 -53 -105 -189 -101 -234 6 -18 44 -18 68 3
111 32 68 115 93 180 53z"/>
<path d="M1855 5541 c-64 -40 -105 -106 -105 -171 0 -88 72 -182 150 -195 87
-15 172 18 156 61 -5 14 -14 15 -49 9 -117 -22 -189 24 -189 120 0 102 96 165
187 123 21 -9 29 -9 41 3 19 20 10 43 -22 58 -40 18 -135 14 -169 -8z"/>
<path d="M2960 5549 c-32 -13 -88 -66 -106 -101 -21 -40 -20 -266 1 -274 35
-14 45 14 45 120 0 139 22 177 114 202 34 9 41 15 41 35 0 20 -5 24 -35 26
-19 1 -46 -2 -60 -8z"/>
<path d="M4625 5286 c-110 -19 -187 -44 -179 -58 4 -7 3 -8 -5 -4 -15 10 -72
-26 -110 -69 -42 -49 -51 -91 -51 -252 l0 -143 299 0 298 0 -1 -42 -1 -43
-465 -5 -465 -5 -59 -30 c-62 -31 -129 -100 -164 -171 -52 -104 -78 -295 -63
-471 22 -252 94 -403 224 -467 47 -24 61 -26 183 -26 l132 0 4 188 c4 161 7
194 25 240 31 78 87 140 152 171 l56 26 390 5 c375 5 392 6 447 28 64 26 125
80 151 134 33 69 38 143 35 451 -3 293 -4 303 -26 350 -41 81 -128 139 -268
178 -102 27 -414 36 -539 15z m-36 -180 c51 -27 68 -112 31 -158 -31 -40 -73
-53 -121 -38 -51 17 -60 29 -68 92 -6 51 -5 54 28 86 38 36 82 42 130 18z"/>
<path d="M7758 3892 l-198 -106 0 -204 c0 -189 -1 -203 -17 -198 -88 25 -255
72 -383 106 l-155 41 -67 -30 -68 -31 0 -816 0 -815 66 -30 c49 -22 74 -28 98
-24 60 12 509 126 518 131 4 3 8 -79 8 -183 0 -103 4 -193 8 -199 4 -6 94 -57
199 -112 l193 -102 37 21 c67 38 136 75 233 124 140 71 130 54 130 222 0 130
2 143 18 143 9 0 126 -13 260 -29 l243 -29 95 55 94 55 0 773 0 773 -92 52
-93 53 -245 -27 c-135 -15 -253 -26 -262 -26 -16 0 -18 14 -18 149 0 107 -4
151 -12 158 -12 9 -134 75 -297 160 -36 18 -69 37 -75 43 -5 5 -12 10 -15 9
-4 0 -95 -48 -203 -107z"/>
<path d="M2021 2964 c-105 -28 -181 -74 -267 -159 -60 -59 -89 -98 -113 -148
-111 -238 -69 -489 115 -674 53 -54 91 -82 147 -109 102 -48 112 -45 112 34
l0 64 -60 1 c-76 2 -103 20 -144 91 -17 30 -40 60 -51 66 -24 13 -27 40 -5 40
29 0 70 -28 107 -73 60 -72 135 -74 168 -4 11 23 20 41 20 42 0 1 -24 7 -54
14 -106 24 -175 93 -197 199 -14 71 -6 144 22 191 17 27 22 49 20 91 -3 71 11
110 40 110 12 0 49 -13 83 -29 53 -26 67 -28 106 -21 60 12 145 12 197 0 37
-9 48 -7 99 21 71 37 104 35 116 -6 5 -16 7 -51 4 -78 -4 -39 -1 -54 19 -82
30 -44 39 -116 26 -190 -21 -114 -82 -178 -196 -206 -62 -16 -61 -15 -44 -35
10 -12 16 -56 19 -143 6 -151 6 -151 118 -95 103 51 205 152 256 254 86 175
86 354 0 530 -70 141 -222 263 -380 304 -76 20 -211 20 -283 0z"/>
<path d="M1352 1768 c-58 -13 -114 -69 -133 -134 -8 -27 -14 -83 -13 -124 1
-175 69 -251 225 -252 46 -1 83 5 109 17 l40 18 0 129 0 128 -85 0 c-81 0 -85
-1 -91 -24 -10 -43 -1 -61 34 -64 31 -3 32 -4 32 -53 l0 -49 -48 0 c-38 0 -53
5 -70 23 -54 58 -56 213 -3 261 28 25 92 37 145 27 l46 -8 11 40 c6 23 7 43 1
49 -9 9 -114 29 -142 27 -8 -1 -34 -5 -58 -11z"/>
<path d="M5675 1770 c-3 -6 1 -7 9 -4 18 7 21 14 7 14 -6 0 -13 -4 -16 -10z"/>
<path d="M5770 1770 c8 -5 20 -10 25 -10 6 0 3 5 -5 10 -8 5 -19 10 -25 10 -5
0 -3 -5 5 -10z"/>
<path d="M2052 1513 l3 -248 50 0 50 0 3 108 3 108 67 -3 67 -3 3 -100 c2 -64
7 -102 15 -107 7 -4 29 -8 50 -8 l37 0 0 250 0 250 -50 0 -49 0 -3 -92 -3 -93
-67 -3 -67 -3 -3 93 -3 93 -53 3 -52 3 2 -248z"/>
<path d="M2805 1748 c-2 -7 -2 -26 -1 -43 2 -16 4 -123 4 -237 l2 -208 34 0
c19 0 36 5 38 12 3 9 12 9 35 -1 46 -19 117 -17 148 3 38 25 55 74 55 162 0
88 -19 138 -61 159 -32 17 -86 19 -123 5 l-26 -10 0 85 0 85 -50 0 c-32 0 -52
-5 -55 -12z m206 -255 c16 -44 11 -111 -11 -133 -21 -21 -32 -23 -68 -14 -22
6 -23 10 -20 87 3 77 4 81 28 87 37 9 60 0 71 -27z"/>
<path d="M5685 1750 c-3 -5 1 -10 9 -10 8 0 18 5 21 10 3 6 -1 10 -9 10 -8 0
-18 -4 -21 -10z"/>
<path d="M1652 1734 c-41 -28 -18 -104 32 -104 36 0 56 20 56 55 0 33 -27 65
-55 65 -6 0 -21 -7 -33 -16z"/>
<path d="M5560 1726 c0 -2 7 -9 15 -16 9 -7 15 -8 15 -2 0 5 -7 12 -15 16 -8
3 -15 4 -15 2z"/>
<path d="M5904 1706 c-10 -8 -17 -16 -14 -19 3 -2 14 4 24 14 23 22 18 25 -10
5z"/>
<path d="M5545 1700 c3 -5 8 -10 11 -10 2 0 4 5 4 10 0 6 -5 10 -11 10 -5 0
-7 -4 -4 -10z"/>
<path d="M5738 1703 c12 -2 30 -2 40 0 9 3 -1 5 -23 4 -22 0 -30 -2 -17 -4z"/>
<path d="M1830 1651 c0 -46 -2 -50 -31 -60 -27 -9 -30 -14 -27 -43 2 -28 8
-34 31 -36 l27 -3 0 -95 c0 -93 1 -96 30 -125 27 -27 35 -30 87 -27 l58 3 3
38 c3 32 0 37 -18 37 -50 0 -60 16 -60 95 l0 74 38 3 c36 3 37 4 40 46 l3 42
-40 0 -41 0 0 50 0 50 -50 0 -50 0 0 -49z"/>
<path d="M5847 1676 c-4 -10 -1 -13 8 -9 8 3 12 9 9 14 -7 12 -11 11 -17 -5z"/>
<path d="M5615 1640 c-10 -11 -16 -22 -14 -24 2 -2 12 7 22 20 22 29 17 32 -8
4z"/>
<path d="M5476 1613 c-6 -14 -5 -15 5 -6 7 7 10 15 7 18 -3 3 -9 -2 -12 -12z"/>
<path d="M5502 1609 c-7 -12 -11 -24 -8 -27 3 -3 6 0 6 7 0 7 4 10 8 7 4 -2 9
4 9 15 2 24 1 24 -15 -2z"/>
<path d="M1632 1433 l3 -168 50 0 50 0 3 168 2 167 -55 0 -55 0 2 -167z"/>
<path d="M2450 1471 c0 -142 7 -172 44 -196 30 -20 122 -23 155 -6 17 9 26 10
36 1 8 -6 26 -10 42 -8 l28 3 3 168 2 167 -55 0 -55 0 0 -124 0 -124 -26 -6
c-14 -4 -34 -4 -45 -1 -17 6 -19 17 -19 131 l0 124 -55 0 -55 0 0 -129z"/>
<path d="M5542 1575 c0 -16 2 -22 5 -12 2 9 2 23 0 30 -3 6 -5 -1 -5 -18z"/>
<path d="M5412 1468 c-28 -62 -55 -114 -60 -116 -5 -1 -30 46 -57 105 -26 60
-48 109 -49 110 -1 1 -2 -25 -3 -58 -1 -38 -8 -71 -20 -92 l-19 -32 39 -85
c86 -185 98 -210 108 -210 5 0 41 66 80 148 62 128 72 144 80 124 5 -13 13
-20 19 -17 6 4 9 1 8 -7 -2 -7 4 -12 12 -10 8 2 12 0 7 -4 -14 -14 26 -43 91
-65 101 -33 196 -18 261 42 l23 22 -35 34 -34 35 -41 -21 c-64 -33 -130 -25
-179 21 -12 12 -27 17 -34 13 -8 -5 -10 -4 -5 4 4 6 -2 24 -13 40 -12 16 -22
35 -22 43 -1 7 -5 -3 -9 -22 l-7 -35 -3 30 -2 30 -8 -30 -8 -30 -2 30 c-1 26
-3 27 -10 10 -9 -23 -14 -14 -26 50 -6 37 -8 38 -14 15 -8 -25 -14 -11 -11 23
1 9 0 17 -2 17 -2 0 -27 -51 -55 -112z m77 -8 c0 -23 -1 -23 -9 -5 -5 11 -9
29 -9 40 -1 17 1 17 9 5 5 -8 9 -26 9 -40z"/>
<path d="M5090 1366 c7 -7 13 -7 20 0 6 6 3 10 -10 10 -13 0 -16 -4 -10 -10z"/>
<path d="M5160 1335 c-11 -13 -15 -13 -21 -3 -5 9 -8 6 -7 -8 2 -18 5 -20 20
-11 10 7 20 17 22 24 7 17 1 16 -14 -2z"/>
<path d="M4918 1333 c7 -3 16 -2 19 1 4 3 -2 6 -13 5 -11 0 -14 -3 -6 -6z"/>
<path d="M4904 1303 c-16 -12 -15 -13 12 -14 16 -1 45 -1 64 -1 32 1 33 0 10
-7 -14 -5 -62 -9 -107 -10 -62 -1 -85 3 -97 15 -15 14 -16 14 -16 0 0 -9 1
-17 3 -17 1 -1 52 -5 112 -9 l110 -8 -112 2 c-69 1 -106 -2 -96 -8 27 -15 243
-1 291 19 45 18 54 31 23 31 -11 0 -18 -4 -15 -7 10 -17 -16 -18 -52 -3 -21 9
-50 13 -66 10 -28 -5 -40 8 -15 17 6 3 2 4 -10 4 -12 -1 -29 -7 -39 -14z m139
-40 c-7 -2 -21 -2 -30 0 -10 3 -4 5 12 5 17 0 24 -2 18 -5z"/>
<path d="M4824 1289 c-3 -5 6 -9 20 -9 31 0 34 6 6 13 -11 3 -23 1 -26 -4z"/>
</g>
</svg>
